<?xml version="1.0" encoding="UTF-8" standalone="no"?>
<!-- Created with Inkscape (http://www.inkscape.org/) -->

<svg
   xmlns:dc="http://purl.org/dc/elements/1.1/"
   xmlns:cc="http://creativecommons.org/ns#"
   xmlns:rdf="http://www.w3.org/1999/02/22-rdf-syntax-ns#"
   xmlns:svg="http://www.w3.org/2000/svg"
   xmlns="http://www.w3.org/2000/svg"
   xmlns:sodipodi="http://sodipodi.sourceforge.net/DTD/sodipodi-0.dtd"
   xmlns:inkscape="http://www.inkscape.org/namespaces/inkscape"
   width="11.906246mm"
   height="13.22917mm"
   viewBox="0 0 11.906246 13.22917"
   version="1.1"
   id="svg3258"
   inkscape:version="0.92.4 (5da689c313, 2019-01-14)"
   sodipodi:docname="delete_g.svg">
  <defs
     id="defs3252" />
  <sodipodi:namedview
     id="base"
     pagecolor="#ffffff"
     bordercolor="#666666"
     borderopacity="1.0"
     inkscape:pageopacity="0.0"
     inkscape:pageshadow="2"
     inkscape:zoom="0.35"
     inkscape:cx="-266.42822"
     inkscape:cy="-297.14253"
     inkscape:document-units="mm"
     inkscape:current-layer="layer1"
     showgrid="false"
     fit-margin-top="0"
     fit-margin-left="0"
     fit-margin-right="0"
     fit-margin-bottom="0"
     inkscape:window-width="1920"
     inkscape:window-height="1057"
     inkscape:window-x="-8"
     inkscape:window-y="-8"
     inkscape:window-maximized="1" />
  <metadata
     id="metadata3255">
    <rdf:RDF>
      <cc:Work
         rdf:about="">
        <dc:format>image/svg+xml</dc:format>
        <dc:type
           rdf:resource="http://purl.org/dc/dcmitype/StillImage" />
        <dc:title></dc:title>
      </cc:Work>
    </rdf:RDF>
  </metadata>
  <g
     inkscape:label="Layer 1"
     inkscape:groupmode="layer"
     id="layer1"
     transform="translate(-53.483538,-56.985202)">
    <path
       style="opacity:1;fill:#888888;fill-opacity:1;stroke:#ffffff;stroke-width:0;stroke-linecap:round;stroke-linejoin:round;stroke-miterlimit:4;stroke-dasharray:none;stroke-opacity:1"
       d="m 57.786675,56.985206 a 0.33180552,0.33053756 0 0 0 -0.331696,0.331245 0.33180552,0.33053756 0 0 0 0,0.0093 v 0.320911 h 0.331696 3.304551 0.331696 v -0.330213 h -5.3e-4 a 0.33180552,0.33053756 0 0 0 -0.331179,-0.331246 z m 6.9284,0.661458 a 0.65990719,0.66145833 0 0 0 -0.0067,5.29e-4 H 54.16954 a 0.65990719,0.66145833 0 1 0 0,1.321882 h 10.538816 a 0.65990719,0.66145833 0 1 0 0.0067,-1.322398 z m -9.904876,1.984374 v 0.938963 2.619477 6.086449 c 0,0.519989 0.418372,0.938445 0.938254,0.938445 h 7.381513 c 0.519885,0 0.938768,-0.418456 0.938768,-0.938445 v -6.086449 -2.619477 -0.938963 h -0.938768 -7.381513 z m 1.974673,1.322918 a 0.6613901,0.66033044 0 0 1 0.670107,0.668691 v 6.585647 a 0.6613901,0.66033044 0 1 1 -1.322132,0 v -6.585647 a 0.6613901,0.66033044 0 0 1 0.652025,-0.668691 z m 2.645812,0 a 0.6613901,0.66033044 0 0 1 0.669591,0.668691 v 6.585647 a 0.6613901,0.66033044 0 1 1 -1.321614,0 v -6.585647 a 0.6613901,0.66033044 0 0 1 0.652023,-0.668691 z m 2.645812,0 a 0.6613901,0.66033044 0 0 1 0.66959,0.668691 v 6.585647 a 0.6613901,0.66033044 0 1 1 -1.322129,0 v -6.585647 a 0.6613901,0.66033044 0 0 1 0.652539,-0.668691 z"
       id="rect2921-8-7-1-4"
       inkscape:connector-curvature="0" />
  </g>
</svg>
