<?xml version="1.0" encoding="UTF-8" standalone="no"?>
<!-- Created with Inkscape (http://www.inkscape.org/) -->

<svg
   xmlns:dc="http://purl.org/dc/elements/1.1/"
   xmlns:cc="http://creativecommons.org/ns#"
   xmlns:rdf="http://www.w3.org/1999/02/22-rdf-syntax-ns#"
   xmlns:svg="http://www.w3.org/2000/svg"
   xmlns="http://www.w3.org/2000/svg"
   xmlns:sodipodi="http://sodipodi.sourceforge.net/DTD/sodipodi-0.dtd"
   xmlns:inkscape="http://www.inkscape.org/namespaces/inkscape"
   width="11.906264mm"
   height="13.229169mm"
   viewBox="0 0 11.906264 13.229169"
   version="1.1"
   id="svg3258"
   inkscape:version="0.92.4 (5da689c313, 2019-01-14)"
   sodipodi:docname="delete.svg">
  <defs
     id="defs3252" />
  <sodipodi:namedview
     id="base"
     pagecolor="#ffffff"
     bordercolor="#666666"
     borderopacity="1.0"
     inkscape:pageopacity="0.0"
     inkscape:pageshadow="2"
     inkscape:zoom="0.35"
     inkscape:cx="-74.642501"
     inkscape:cy="-259.28539"
     inkscape:document-units="mm"
     inkscape:current-layer="layer1"
     showgrid="false"
     fit-margin-top="0"
     fit-margin-left="0"
     fit-margin-right="0"
     fit-margin-bottom="0"
     inkscape:window-width="1920"
     inkscape:window-height="1057"
     inkscape:window-x="-8"
     inkscape:window-y="-8"
     inkscape:window-maximized="1" />
  <metadata
     id="metadata3255">
    <rdf:RDF>
      <cc:Work
         rdf:about="">
        <dc:format>image/svg+xml</dc:format>
        <dc:type
           rdf:resource="http://purl.org/dc/dcmitype/StillImage" />
        <dc:title></dc:title>
      </cc:Work>
    </rdf:RDF>
  </metadata>
  <g
     inkscape:label="Layer 1"
     inkscape:groupmode="layer"
     id="layer1"
     transform="translate(-2.7402332,-67.001571)">
    <path
       style="opacity:1;fill:#ffffff;fill-opacity:1;stroke:#ffffff;stroke-width:0;stroke-linecap:round;stroke-linejoin:round;stroke-miterlimit:4;stroke-dasharray:none;stroke-opacity:1"
       d="m 7.0433698,67.001574 a 0.33180552,0.33053756 0 0 0 -0.331696,0.331245 0.33180552,0.33053756 0 0 0 0,0.0093 v 0.320911 h 0.331696 3.3045512 0.331696 v -0.330213 h -5.3e-4 a 0.33180552,0.33053756 0 0 0 -0.331179,-0.331245 z m 6.9284002,0.661458 a 0.65990719,0.66145833 0 0 0 -0.0067,5.29e-4 H 3.4262348 a 0.65990719,0.66145833 0 1 0 0,1.321882 H 13.96505 a 0.65990719,0.66145833 0 1 0 0.0067,-1.322397 z m -9.9048762,1.984374 v 0.938963 2.619477 6.086449 c 0,0.519989 0.418372,0.938445 0.938254,0.938445 h 7.3815132 c 0.519884,0 0.938767,-0.418456 0.938767,-0.938445 V 73.205846 70.586369 69.647406 H 12.386661 5.0051478 Z m 1.974672,1.322918 a 0.6613901,0.66033044 0 0 1 0.670108,0.668691 v 6.585647 a 0.6613901,0.66033044 0 1 1 -1.322132,0 v -6.585647 a 0.6613901,0.66033044 0 0 1 0.652024,-0.668691 z m 2.645813,0 a 0.6613901,0.66033044 0 0 1 0.669591,0.668691 v 6.585647 a 0.6613901,0.66033044 0 1 1 -1.321614,0 v -6.585647 a 0.6613901,0.66033044 0 0 1 0.652023,-0.668691 z m 2.6458122,0 a 0.6613901,0.66033044 0 0 1 0.66959,0.668691 v 6.585647 a 0.6613901,0.66033044 0 1 1 -1.322129,0 v -6.585647 a 0.6613901,0.66033044 0 0 1 0.652539,-0.668691 z"
       id="rect2921-8-7-1-4-8"
       inkscape:connector-curvature="0" />
  </g>
</svg>
