<?xml version="1.0" encoding="UTF-8" standalone="no"?>
<!-- Created with Inkscape (http://www.inkscape.org/) -->

<svg
   width="127.88445mm"
   height="63.582832mm"
   viewBox="0 0 127.88445 63.582832"
   version="1.1"
   id="svg4706"
   inkscape:version="1.1.1 (3bf5ae0d25, 2021-09-20)"
   sodipodi:docname="NoodleManagerLogo.svg"
   xmlns:inkscape="http://www.inkscape.org/namespaces/inkscape"
   xmlns:sodipodi="http://sodipodi.sourceforge.net/DTD/sodipodi-0.dtd"
   xmlns:xlink="http://www.w3.org/1999/xlink"
   xmlns="http://www.w3.org/2000/svg"
   xmlns:svg="http://www.w3.org/2000/svg"
   xmlns:rdf="http://www.w3.org/1999/02/22-rdf-syntax-ns#"
   xmlns:cc="http://creativecommons.org/ns#"
   xmlns:dc="http://purl.org/dc/elements/1.1/">
  <defs
     id="defs4700">
    <linearGradient
       inkscape:collect="always"
       xlink:href="#lg0"
       id="linearGradient1108-8"
       gradientUnits="userSpaceOnUse"
       gradientTransform="matrix(0.26265036,0,0,0.26265036,186.4489,-72.60238)"
       x1="-661.02344"
       y1="392.09961"
       x2="-661.02319"
       y2="518.50476" />
    <linearGradient
       y2="0.93061227"
       x2="0.20570265"
       y1="0.52244902"
       x1="0.087576367"
       gradientUnits="userSpaceOnUse"
       id="lg0">
      <stop
         id="stop870"
         style="stop-color:rgb(236,106,57);"
         offset="0%" />
      <stop
         id="stop872"
         style="stop-color:rgb(236,84,79);"
         offset="7%" />
      <stop
         id="stop874"
         style="stop-color:rgb(236,85,79);"
         offset="8%" />
      <stop
         id="stop876"
         style="stop-color:rgb(236,72,92);"
         offset="11%" />
      <stop
         id="stop878"
         style="stop-color:rgb(236,72,92);"
         offset="12%" />
      <stop
         id="stop880"
         style="stop-color:rgb(223,36,150);"
         offset="32%" />
      <stop
         id="stop882"
         style="stop-color:rgb(94,69,177);"
         offset="65%" />
      <stop
         id="stop884"
         style="stop-color:rgb(80,81,183);"
         offset="69%" />
      <stop
         id="stop886"
         style="stop-color:rgb(80,81,183);"
         offset="71%" />
      <stop
         id="stop888"
         style="stop-color:rgb(63,125,201);"
         offset="81%" />
      <stop
         id="stop890"
         style="stop-color:rgb(62,133,204);"
         offset="82%" />
      <stop
         id="stop892"
         style="stop-color:rgb(60,157,212);"
         offset="86%" />
      <stop
         id="stop894"
         style="stop-color:rgb(59,160,213);"
         offset="87%" />
      <stop
         id="stop896"
         style="stop-color:rgb(59,170,217);"
         offset="88%" />
      <stop
         id="stop898"
         style="stop-color:rgb(59,187,223);"
         offset="91%" />
      <stop
         id="stop900"
         style="stop-color:rgb(59,189,223);"
         offset="92%" />
      <stop
         id="stop902"
         style="stop-color:rgb(59,186,222);"
         offset="93%" />
      <stop
         id="stop904"
         style="stop-color:rgb(59,205,229);"
         offset="97%" />
      <stop
         id="stop906"
         style="stop-color:rgb(59,213,231);"
         offset="98%" />
      <stop
         id="stop908"
         style="stop-color:rgb(59,222,235);"
         offset="100%" />
    </linearGradient>
  </defs>
  <sodipodi:namedview
     id="base"
     pagecolor="#ffffff"
     bordercolor="#666666"
     borderopacity="1.0"
     inkscape:pageopacity="0.0"
     inkscape:pageshadow="2"
     inkscape:zoom="1.4"
     inkscape:cx="76.785714"
     inkscape:cy="155.35714"
     inkscape:document-units="mm"
     inkscape:current-layer="layer1"
     showgrid="false"
     fit-margin-top="0"
     fit-margin-left="0"
     fit-margin-right="0"
     fit-margin-bottom="0"
     inkscape:window-width="1920"
     inkscape:window-height="1057"
     inkscape:window-x="-8"
     inkscape:window-y="-8"
     inkscape:window-maximized="1"
     inkscape:pagecheckerboard="0"
     inkscape:snap-page="true"
     inkscape:snap-bbox="true"
     inkscape:bbox-nodes="true" />
  <metadata
     id="metadata4703">
    <rdf:RDF>
      <cc:Work
         rdf:about="">
        <dc:format>image/svg+xml</dc:format>
        <dc:type
           rdf:resource="http://purl.org/dc/dcmitype/StillImage" />
        <dc:title />
      </cc:Work>
    </rdf:RDF>
  </metadata>
  <g
     inkscape:label="Layer 1"
     inkscape:groupmode="layer"
     id="layer1">
    <path
       sodipodi:nodetypes="ccccc"
       inkscape:connector-curvature="0"
       id="path4562-8-0"
       d="M 0.246231,31.6093 127.58668,2.34474 127.28489,0 1e-6,30.56279 Z"
       style="fill:#ffffff;stroke:#000000;stroke-width:0;stroke-linecap:butt;stroke-linejoin:miter;stroke-miterlimit:4;stroke-dasharray:none;stroke-opacity:1" />
    <path
       inkscape:connector-curvature="0"
       id="path4633-0-0"
       d="m 22.041091,28.84834 -2.35514,0.39246 v 33.34068 l -4.49994,0.65714 V 29.99028 l -2.35512,0.39243 v 33.20012 l 9.2102,-1.34505 z m -3.42061,0.56995 -2.35514,0.39242 v 30.43103 l 2.35514,-0.34422 z m -6.85097,1.1414 -2.35512,0.39243 v 24.91434 l 2.35512,-0.34422 z m -3.43036,0.57146 -2.35513,0.39244 V 59.1932 l 2.35513,-0.34371 z"
       style="fill:url(#linearGradient1108-8);fill-opacity:1;stroke:#ffff00;stroke-width:0;stroke-linecap:butt;stroke-linejoin:miter;stroke-miterlimit:4;stroke-dasharray:none;stroke-opacity:1" />
    <path
       inkscape:connector-curvature="0"
       id="path3571-9-6-2-5"
       d="m 87.907402,24.54143 c -0.38223,-3.1e-4 -0.78572,0.0293 -1.21078,0.092 l -9.3443,1.3772 v 13.53016 l 9.3443,-1.37772 c 7.94835,-1.17142 8.98327,-13.61487 1.21078,-13.62163 z m -1.44902,3.93213 c 3.68028,0.003 3.19042,5.65333 -0.5731,6.18526 l -4.42462,0.62582 v -6.14393 l 4.42462,-0.6253 c 0.20127,-0.0284 0.3921,-0.042 0.5731,-0.0419 z"
       style="fill:#ffffff;stroke:#00ff00;stroke-width:0;stroke-linecap:butt;stroke-linejoin:miter;stroke-miterlimit:4;stroke-dasharray:none;stroke-opacity:1" />
    <path
       inkscape:connector-curvature="0"
       id="path2946-9"
       d="m 25.366641,47.13474 v -13.5298 l 15.875,-2.34521 v 13.52979 l -4.10875,0.60699 v -9.79282 l -7.65751,1.13116 v 9.79289 z"
       style="fill:#ffffff;stroke:#000000;stroke-width:0;stroke-linecap:butt;stroke-linejoin:miter;stroke-miterlimit:4;stroke-dasharray:none;stroke-opacity:1" />
    <path
       inkscape:connector-curvature="0"
       id="path2948-7"
       d="m 58.570205,28.72835 -15.875004,2.34506 v 13.52994 l 15.875004,-2.34509 z m -4.108794,4.34391 v 6.14381 l -7.65794,1.1312 v -6.14381 z"
       style="fill:#ffffff;stroke:#000000;stroke-width:0;stroke-linecap:butt;stroke-linejoin:miter;stroke-miterlimit:4;stroke-dasharray:none;stroke-opacity:1" />
    <path
       inkscape:connector-curvature="0"
       id="path2948-9-3"
       d="m 75.898765,26.19695 -15.875,2.34507 v 13.52993 l 15.875,-2.34508 z m -4.1088,4.34392 v 6.14381 l -7.65793,1.1312 v -6.14381 z"
       style="fill:#ffffff;stroke:#000000;stroke-width:0;stroke-linecap:butt;stroke-linejoin:miter;stroke-miterlimit:4;stroke-dasharray:none;stroke-opacity:1" />
    <path
       inkscape:connector-curvature="0"
       id="path3078-7"
       d="M 94.680882,36.98111 V 23.45132 l 4.10874,-0.60699 v 9.88055 l 11.766258,-1.73809 v 3.64911 z"
       style="fill:#ffffff;stroke:#000000;stroke-width:0;stroke-linecap:butt;stroke-linejoin:miter;stroke-miterlimit:4;stroke-dasharray:none;stroke-opacity:1" />
    <path
       inkscape:connector-curvature="0"
       id="path3250-7"
       d="M 112.00944,34.42117 V 20.89138 l 15.875,-2.34521 v 3.73703 l -11.76625,1.73809 v 1.15948 l 11.76625,-1.73809 v 3.73695 l -11.76625,1.73809 v 1.24723 l 11.76625,-1.73809 v 3.6491 z"
       style="fill:#ffffff;stroke:#000000;stroke-width:0;stroke-linecap:butt;stroke-linejoin:miter;stroke-miterlimit:4;stroke-dasharray:none;stroke-opacity:1" />
    <path
       inkscape:connector-curvature="0"
       id="path3252-6"
       d="M 25.366641,61.75212 V 50.17861 l 13.57962,-2.00611 v 11.57351 l -3.51466,0.51921 v -8.37685 l -1.51783,0.22421 v 8.37687 l -3.51466,0.51922 v -8.37692 l -1.51781,0.22423 v 8.37692 z"
       style="fill:#ffffff;stroke:#000000;stroke-width:0;stroke-linecap:butt;stroke-linejoin:miter;stroke-miterlimit:4;stroke-dasharray:none;stroke-opacity:1" />
    <path
       inkscape:connector-curvature="0"
       id="path3254-2"
       d="m 53.769281,46.00711 -13.57963,2.00601 v 11.57363 l 3.51426,-0.51942 v -4.18837 l 6.55066,-0.96764 v 4.18837 l 3.51471,-0.51895 z m -3.51471,3.71583 v 0.99196 l -6.55066,0.96764 v -0.99195 z"
       style="fill:#ffffff;stroke:#000000;stroke-width:0;stroke-linecap:butt;stroke-linejoin:miter;stroke-miterlimit:4;stroke-dasharray:none;stroke-opacity:1" />
    <path
       inkscape:connector-curvature="0"
       id="path2946-8-9"
       d="M 55.012675,57.42124 V 45.84773 l 13.57962,-2.00611 v 11.57351 l -3.51465,0.51921 v -8.37685 l -6.5503,0.96761 v 8.37692 z"
       style="fill:#ffffff;stroke:#000000;stroke-width:0;stroke-linecap:butt;stroke-linejoin:miter;stroke-miterlimit:4;stroke-dasharray:none;stroke-opacity:1" />
    <path
       inkscape:connector-curvature="0"
       id="path3254-4-6"
       d="m 83.415312,41.67623 -13.579617,2.00601 v 11.57363 l 3.51425,-0.51942 v -4.18837 l 6.550657,-0.96764 v 4.18839 l 3.51471,-0.51897 z m -3.51471,3.71583 v 0.99195 l -6.550657,0.96765 V 46.3597 Z"
       style="fill:#ffffff;stroke:#000000;stroke-width:0;stroke-linecap:butt;stroke-linejoin:miter;stroke-miterlimit:4;stroke-dasharray:none;stroke-opacity:1" />
    <path
       inkscape:connector-curvature="0"
       id="path3250-3-1"
       d="M 99.481712,50.92487 V 39.35136 l 13.579628,-2.00611 v 3.19669 l -10.06496,1.48678 v 0.99183 l 10.06496,-1.48678 v 3.19661 l -10.06496,1.48678 v 1.06689 l 10.06496,-1.48678 v 3.12149 z"
       style="fill:#ffffff;stroke:#000000;stroke-width:0;stroke-linecap:butt;stroke-linejoin:miter;stroke-miterlimit:4;stroke-dasharray:none;stroke-opacity:1" />
    <path
       inkscape:connector-curvature="0"
       id="path3339-8"
       d="m 127.88435,35.17987 -13.57962,2.006 V 48.7595 l 3.51425,-0.51941 v -4.18837 l 6.55066,3.22074 3.51471,-0.51897 v -2.01926 l -3.51471,-1.65014 3.51471,-0.51897 z m -3.51471,3.71583 v 0.99195 l -6.55066,0.96765 v -0.99197 z"
       style="fill:#ffffff;stroke:#000000;stroke-width:0;stroke-linecap:butt;stroke-linejoin:miter;stroke-miterlimit:4;stroke-dasharray:none;stroke-opacity:1" />
    <path
       inkscape:connector-curvature="0"
       id="path3799"
       d="m 84.658692,53.09035 v -11.5735 l 13.57962,-2.00611 v 3.19669 l -10.06495,1.48679 v 5.25533 l 6.5503,-0.96761 v -1.06687 l -5.57526,0.82356 v -3.1966 l 9.08991,-1.34276 v 7.38498 z"
       style="fill:#ffffff;stroke:#000000;stroke-width:0;stroke-linecap:butt;stroke-linejoin:miter;stroke-miterlimit:4;stroke-dasharray:none;stroke-opacity:1" />
    <path
       inkscape:connector-curvature="0"
       id="path4595-4"
       d="M 127.48364,11.28146 23.116366,28.66903 v 1.37976 L 127.57407,13.73248 Z M 4.908693,31.70244 l -4.465361,0.74414 0.15813,1.11931 4.307231,-0.67283 z"
       style="fill:#ffffff;stroke:#000000;stroke-width:0;stroke-linecap:butt;stroke-linejoin:miter;stroke-miterlimit:4;stroke-dasharray:none;stroke-opacity:1" />
  </g>
</svg>
